<?xml version="1.0" encoding="UTF-8" standalone="no"?>
<svg width="200" height="200" viewBox="0 0 200 200" xmlns="http://www.w3.org/2000/svg">
  <!-- Background circle -->
  <circle cx="100" cy="100" r="95" fill="#f0f0f0" stroke="#2c3e50" stroke-width="2"/>
  
  <!-- Mesh network pattern -->
  <g stroke="#3498db" stroke-width="2">
    <!-- Network nodes as cars -->
    <circle cx="70" cy="60" r="10" fill="#e74c3c"/>
    <circle cx="130" cy="70" r="10" fill="#e74c3c"/>
    <circle cx="50" cy="120" r="10" fill="#e74c3c"/>
    <circle cx="140" cy="130" r="10" fill="#e74c3c"/>
    <circle cx="100" cy="100" r="10" fill="#2ecc71"/>
    
    <!-- Network connections -->
    <line x1="70" y1="60" x2="130" y2="70" stroke-dasharray="5,3"/>
    <line x1="70" y1="60" x2="100" y2="100" stroke-dasharray="5,3"/>
    <line x1="130" y1="70" x2="100" y2="100" stroke-dasharray="5,3"/>
    <line x1="50" y1="120" x2="100" y2="100" stroke-dasharray="5,3"/>
    <line x1="140" y1="130" x2="100" y2="100" stroke-dasharray="5,3"/>
    <line x1="50" y1="120" x2="140" y2="130" stroke-dasharray="5,3"/>
  </g>
  
  <!-- Parking spaces -->
  <rect x="60" y="140" width="20" height="40" rx="2" ry="2" fill="none" stroke="#2c3e50" stroke-width="2"/>
  <rect x="85" y="140" width="20" height="40" rx="2" ry="2" fill="none" stroke="#2c3e50" stroke-width="2"/>
  <rect x="110" y="140" width="20" height="40" rx="2" ry="2" fill="#2ecc71" stroke="#2c3e50" stroke-width="2"/>
  
  <!-- Road -->
  <rect x="40" y="130" width="120" height="8" fill="#34495e"/>
  
  <!-- Label -->
  <text x="100" y="35" font-family="Arial, sans-serif" font-size="18" font-weight="bold" text-anchor="middle" fill="#2c3e50">PARKMESH</text>
</svg>